<?xml version="1.0" encoding="UTF-8"?>
<svg width="70px" height="69px" viewBox="0 0 70 69" version="1.1" xmlns="http://www.w3.org/2000/svg">
    <g stroke="none" stroke-width="1" fill="none" fill-rule="evenodd">
        <g transform="translate(-540.000000, -2011.000000)">
            <g transform="translate(-2.000000, 1469.000000)">
                <g transform="translate(544.000000, 544.000000)">
                    <circle stroke="#1771F1" stroke-width="3" cx="32.5" cy="32.5" r="32.5"></circle>
                    <circle fill="#EF7D40" cx="9" cy="8" r="8"></circle>
                    <circle stroke="#1771F1" stroke-width="3" cx="32" cy="32" r="19"></circle>
                    <path d="M14,36.0770275 C20.8224771,36.0770275 23,34.2839647 23,48" stroke="#1771F1" stroke-width="3"></path>
                    <path d="M13,28 C16.7080274,28 16.7080274,28 20.4188216,28 C23.6400859,26.8383776 24.6354865,25.8380051 26,23.3120609 C26,21.2986599 26,18.5279729 26,15" stroke="#1771F1" stroke-width="3"></path>
                    <path d="M44,18 C42.3501419,18 40.5498518,18 38.5991298,18 C36.4444643,23.4014693 34.5123687,26.1022039 32.8028429,26.1022039 C30.2385543,26.1022039 31.1709798,33.6968682 31.1420931,36.8881299 C33.071821,39.2736607 36.087879,40.7906088 38.5991298,41.812304 C38.5991298,45.8852229 38.5991298,48.9477882 38.5991298,51" stroke="#1771F1" stroke-width="3"></path>
                    <path d="M49.8301554,46.5164295 L49.8301554,59.9103907 C49.8301554,61.0149602 50.7255859,61.9103907 51.8301554,61.9103907 C52.2426397,61.9103907 52.6450349,61.7828529 52.9822119,61.5452502 L62.4857584,54.8482697 C63.3886664,54.2120064 63.6048247,52.9642616 62.9685615,52.0613536 C62.8364908,51.8739349 62.6731771,51.7106212 62.4857584,51.5785506 L52.9822119,44.88157 C52.0793039,44.2453067 50.8315591,44.461465 50.1952958,45.364373 C49.9576932,45.70155 49.8301554,46.1039452 49.8301554,46.5164295 Z" fill="#EF7D40" transform="translate(56.949983, 53.213369) scale(-1, 1) rotate(49.000000) translate(-56.949983, -53.213369) "></path>
                </g>
            </g>
        </g>
    </g>
</svg>