<svg width="32px" height="33px" viewBox="0 0 32 33" version="1.1" xmlns="http://www.w3.org/2000/svg">
    <g class="svg__arrow" stroke="none" stroke-width="1" fill="#000" fill-rule="evenodd">
        <g transform="translate(-714.000000, -452.000000)" fill="">
            <g transform="translate(714.000000, 452.000000)">
                <path d="M2,12 L13.7354167,12 L14.3380363,11.4677876 C14.7519936,11.1021952 15.3839435,11.1414026 15.7495359,11.5553599 C15.9109289,11.7381037 16,11.9735142 16,12.2173235 L16,21.8314392 C16,22.3837239 15.5522847,22.8314392 15,22.8314392 C14.7619701,22.8314392 14.531746,22.7465329 14.3507138,22.5919833 L13.6572917,22 L2,22 C0.8954305,22 -6.60031297e-16,21.1045695 -1.77635684e-15,20 L-4.4408921e-16,14 C-5.7935996e-16,12.8954305 0.8954305,12 2,12 Z" id="Rectangle-3"></path>
                <path d="M14,1.81326858 L14,32.0536164 C14,32.6059012 14.4477153,33.0536164 15,33.0536164 C15.2555757,33.0536164 15.5014518,32.9557611 15.6871351,32.7801461 L31.6741743,17.6599722 C32.0754255,17.280478 32.0930631,16.6475587 31.7135689,16.2463074 C31.7008058,16.2328126 31.6876691,16.2196759 31.6741743,16.2069128 L15.6871351,1.08673889 C15.2858838,0.707244667 14.6529645,0.72488224 14.2734703,1.12613351 C14.0978553,1.31181681 14,1.55769293 14,1.81326858 Z" id="Path-26"></path>
            </g>
        </g>
    </g>
</svg>