<?xml version="1.0" encoding="UTF-8"?>
<svg width="59px" height="57px" viewBox="0 0 59 57" xmlns="http://www.w3.org/2000/svg">
    <g class="svg__existClient" stroke="none" stroke-width="1" fill="none" fill-rule="evenodd">
        <g transform="translate(-564.000000, -411.000000)">
            <g transform="translate(441.000000, 239.000000)">
                <g transform="translate(123.000000, 174.000000)">
                    <path d="M20.3924378,7.14386762 C20.7519077,7.04795587 21.1341909,7 21.5392874,7 C32.3823039,7 31.248192,11.5418431 31.248192,20.0175764 C33.2490201,20.0175764 33.2490201,26.54104 31.248192,26.54104 C31.248192,27.7841389 30.1863031,32.3624549 28.2828889,33.6748307 C28.2828889,36.1476479 28.2828889,36.8056703 28.2828889,38.4909757 C31.4304272,40.2660605 40.7848756,43.2307219 40.7848756,48.9988303 C40.7848756,49.2834557 40.7848756,49.5539746 40.7848756,49.8103868 C40.7848662,51.4672358 39.4417246,52.8103774 37.7848756,52.8103774 L21.6459091,52.8103703 C21.2011147,50.9494692 20.783291,49.145263 20.3924378,47.3977517 C20.0015846,49.145263 19.5837609,50.9494692 19.1389665,52.8103703 L3,52.8103774 C1.34315096,52.8103774 9.43143143e-06,51.4672358 5.20360683e-10,49.8103868 C5.20360671e-10,49.5539746 5.20360658e-10,49.2834557 5.20360643e-10,48.9988303 C5.20360643e-10,43.2307219 9.35444843,40.2660605 12.5019867,38.4909757 C12.5019867,36.8056703 12.5019867,36.1476479 12.5019867,33.6748307 C10.5985725,32.3624549 9.53668361,27.7841389 9.53668361,26.54104 C7.53585549,26.54104 7.53585549,20.0175764 9.53668361,20.0175764 C9.53668361,11.5418431 8.40257167,7 19.2455882,7 C19.6506847,7 20.0329679,7.04795587 20.3924378,7.14386762 Z" id="Combined-Shape-Copy" fill="#2E3F7F"></path>
                    <path d="M37.5701357,-0.848919143 C41.7811703,-0.424285252 44.2291637,0.930393749 45.4356733,3.47118921 C46.3675919,5.43372175 46.4989104,7.21709052 46.4313045,12.586036 C46.4223245,13.2991857 46.4168703,13.8010027 46.4140992,14.2539293 C47.5831574,14.8891623 48.1417411,16.6762523 48.1417411,18.7668484 C48.1417411,20.8843676 47.5686777,22.6905131 46.3686293,23.3037345 C46.111227,25.80455 44.7315871,29.6083841 42.9934067,31.2241227 C42.9934067,33.0626324 42.9934067,33.1616648 42.9934067,34.5056292 C42.9934067,35.1055101 42.9934067,35.2672261 42.9934067,35.6911595 C44.3769817,36.3710313 47.8596647,37.9935129 49.0803742,38.6405922 C54.4188625,41.4704428 57.4057445,44.4652635 57.4057445,48.4164114 C57.4057445,49.1515901 57.4057445,49.1515901 57.4057445,49.8103824 C57.4057405,52.0195193 55.6148809,53.8103775 53.4057441,53.8103775 L35.2028727,53.8103696 L17,53.8103775 C14.7908636,53.8103775 13.0000041,52.0195193 13,49.8103806 C13,49.1515901 13,49.1515901 13,48.4164114 C13,44.4652635 15.9868821,41.4704428 21.3253704,38.6405922 C22.5460798,37.9935129 26.0287628,36.3710313 27.4123379,35.6911595 C27.4123379,35.2672261 27.4123379,35.1055101 27.4123379,34.5056292 C27.4123379,33.1616648 27.4123379,33.0626324 27.4123379,31.2241227 C25.6741575,29.6083841 24.2945176,25.80455 24.0371152,23.3037345 C22.8370669,22.6905131 22.2640035,20.8843676 22.2640035,18.7668484 C22.2640035,16.6762523 22.8225872,14.8891623 23.9916454,14.2539293 C23.9888742,13.8010027 23.9834201,13.2991857 23.9744401,12.586036 C23.9068342,7.21709052 24.0381527,5.43372175 24.9700712,3.47118921 C26.1765809,0.930393749 28.6245742,-0.424285252 32.8356089,-0.848919143 C33.2771669,-0.949920503 33.7388205,-1 34.2193572,-1 C34.5648854,-1 34.9006306,-0.996086662 35.1788666,-0.988252615 C35.5051139,-0.996086662 35.8408591,-1 36.1863873,-1 C36.666924,-1 37.1285776,-0.949920503 37.5701357,-0.848919143 Z" id="Combined-Shape" stroke="#FFFFFF" stroke-width="2" fill="#1771F1"></path>
                </g>
            </g>
        </g>
    </g>
</svg>