<svg xmlns="http://www.w3.org/2000/svg" viewBox="0 0 216 66" style="enable-background:new 0 0 216 66;">
<style type="text/css">
	.st0{fill:none;stroke:#1D1D1B;stroke-width:1.1654;stroke-linejoin:round;stroke-miterlimit:10;}
	.st1{fill:none;stroke:#002D6D;stroke-width:2.9193;stroke-linejoin:round;stroke-miterlimit:10;}
	.st2{fill:none;stroke:#2E3F7F;stroke-width:2.9193;stroke-linejoin:round;stroke-miterlimit:10;}
	.st3{fill:none;stroke:#1771F1;stroke-width:2.9193;stroke-linejoin:round;stroke-miterlimit:10;}
	.st4{fill:#2E3F7F;}
	.st5{fill:#1771F1;}
</style>
<path class="st0" d="M132.9,10.3"/>
<path class="st1" d="M14.7,18.3"/>
<path class="st2" d="M21.2,31l-5.6,5.6c-0.4,0.4-1,0.4-1.4,0L9.4,32c-0.8-0.8-2.2-0.2-2.2,0.9l0.2,16.3c0,1,0.8,1.8,1.8,1.8h16.5
	c1.1,0,1.6-1.3,0.9-2.1l-4.7-4.7c-0.4-0.4-0.4-0.9,0-1.3l5.5-5.6"/>
<path class="st3" d="M14.7,24.8l5.8-5.7c0.4-0.4,0.4-0.9,0-1.3L15.8,13C15,12.3,15.6,11,16.7,11h16.4c1,0,1.8,0.8,1.8,1.8v16.5
	c0,1.1-1.4,1.7-2.2,0.9l-4.7-4.7c-0.4-0.4-0.9-0.4-1.3,0L21.2,31"/>
<g>
	<path class="st4" d="M48.2,40.3h-0.8V22.2h7.5c1.7,0,3.1,0.4,4,1.3c1,0.9,1.4,2,1.4,3.5c0,1.5-0.5,2.6-1.4,3.5
		c-1,0.9-2.3,1.3-4,1.3h-6.7V40.3z M48.2,22.9v8h6.6c1.5,0,2.6-0.3,3.5-1c0.8-0.7,1.2-1.7,1.2-3c0-1.3-0.4-2.3-1.2-3
		c-0.8-0.7-2-1.1-3.5-1.1H48.2z"/>
	<path class="st4" d="M61.7,40.3h-0.8L69.1,22h0.8l8.3,18.2h-0.9l-2.5-5.5H64.2L61.7,40.3z M69.5,23.1l-5,10.9h10L69.5,23.1z"/>
	<path class="st4" d="M85.4,40.3h-0.8v-8.4l-7.1-9.7h1l6.5,8.9l6.5-8.9h1l-7.1,9.7V40.3z"/>
	<path class="st4" d="M96.8,40.3H96V22.2h7.5c1.7,0,3.1,0.4,4,1.3c1,0.9,1.4,2,1.4,3.5c0,1.5-0.5,2.6-1.4,3.5c-1,0.9-2.3,1.3-4,1.3
		h-6.7V40.3z M96.8,22.9v8h6.6c1.5,0,2.6-0.3,3.5-1c0.8-0.7,1.2-1.7,1.2-3c0-1.3-0.4-2.3-1.2-3c-0.8-0.7-2-1.1-3.5-1.1H96.8z"/>
	<path class="st4" d="M121.3,40.6c-2.6,0-4.7-0.9-6.4-2.7c-1.7-1.8-2.6-4-2.6-6.7c0-2.7,0.9-4.9,2.6-6.7c1.7-1.8,3.9-2.7,6.4-2.7
		c2.6,0,4.7,0.9,6.3,2.7c1.7,1.8,2.6,4,2.6,6.7c0,2.7-0.9,4.9-2.6,6.7C126,39.7,123.9,40.6,121.3,40.6z M121.3,39.8
		c2.3,0,4.2-0.8,5.7-2.5c1.6-1.6,2.3-3.7,2.3-6.2c0-2.4-0.8-4.5-2.3-6.1c-1.6-1.7-3.5-2.5-5.7-2.5s-4.2,0.8-5.8,2.5
		c-1.6,1.6-2.3,3.7-2.3,6.1s0.8,4.5,2.3,6.2C117.1,39,119,39.8,121.3,39.8z"/>
	<path class="st4" d="M135.9,40.3h-0.8V22.2h8c1.7,0,3,0.4,3.9,1.3s1.4,2,1.4,3.4c0,1.3-0.4,2.4-1.2,3.2s-1.9,1.3-3.4,1.4l6,8.8h-1
		l-6-8.7h-7V40.3z M135.9,22.9v7.9h7.1c1.5,0,2.6-0.3,3.4-1c0.8-0.7,1.2-1.7,1.2-2.9c0-1.3-0.4-2.2-1.2-2.9c-0.8-0.7-1.9-1-3.4-1
		H135.9z"/>
	<path class="st4" d="M158.9,40.3H158V22.9h-6.6v-0.8h14v0.8h-6.6V40.3z"/>
	<path class="st5" d="M173.7,32.7V22.2h4.7v10.8c0,1.1,0.3,1.9,0.9,2.5c0.6,0.6,1.4,0.9,2.4,0.9c1,0,1.8-0.3,2.4-0.9
		c0.6-0.6,0.9-1.4,0.9-2.5V22.2h4.7v10.5c0,2.5-0.8,4.5-2.3,5.9c-1.5,1.4-3.4,2.1-5.7,2.1c-2.3,0-4.2-0.7-5.7-2.1
		C174.4,37.2,173.7,35.2,173.7,32.7z"/>
	<path class="st5" d="M197.5,40.3h-4.7V22.2h4.7v6.9l5.9-6.9h5.6l-7,8.3l8.3,9.8h-5.7l-7.1-8V40.3z"/>
</g>
</svg>
