<?xml version="1.0" encoding="UTF-8"?>
<svg width="67px" height="60px" viewBox="0 0 67 60" xmlns="http://www.w3.org/2000/svg">
    <g stroke="none" stroke-width="1" fill="none" fill-rule="evenodd">
        <g transform="translate(-150.000000, -1852.000000)">
            <g transform="translate(-2.000000, 1469.000000)">
                <g transform="translate(152.000000, 383.000000)">
                    <rect stroke="#1771F1" stroke-width="3" x="1.5" y="1.5" width="64" height="47" rx="5"></rect>
                    <path d="M65.5,37.5 L65.5,5 C65.5,3.06700338 63.9329966,1.5 62,1.5 L5,1.5 C3.06700338,1.5 1.5,3.06700338 1.5,5 L1.5,37.5 L65.5,37.5 Z" stroke="#1771F1" stroke-width="3" fill="#EF7D40"></path>
                    <path d="M4,37.5 L64,37.5" stroke="#1771F1" stroke-width="3" stroke-linecap="square"></path>
                    <path d="M21,58 L47,58" stroke="#1771F1" stroke-width="3" stroke-linecap="round"></path>
                    <rect stroke="#1771F1" stroke-width="3" fill="#1771F1" x="28.5" y="50.5" width="10" height="6"></rect>
                    <circle fill="#1771F1" cx="34.5" cy="42.5" r="1.5"></circle>
                    <g transform="translate(15.000000, 8.000000)">
                        <path d="M30,1.00008314 L30,9.82830585 C30,10.3805906 30.4477153,10.8283058 31,10.8283058 C31.2062422,10.8283058 31.4074398,10.7645369 31.5760283,10.6457356 L37.8400023,6.23162427 C38.2914563,5.91349265 38.3995355,5.28962023 38.0814038,4.83816623 C38.0153685,4.74445689 37.9337117,4.66280002 37.8400023,4.59676471 L31.5760283,0.182653359 C31.1245743,-0.135478264 30.5007018,-0.0273991218 30.1825702,0.42405488 C30.0637689,0.592643366 30,0.793840975 30,1.00008314 Z" fill="#1771F1"></path>
                        <path d="M29.5,5.5 L0.5,5.5" stroke="#1771F1" stroke-width="3" stroke-linecap="square"></path>
                    </g>
                    <g transform="translate(31.500000, 26.500000) scale(-1, 1) translate(-31.500000, -26.500000) translate(12.000000, 21.000000)">
                        <path d="M30,1.00008314 L30,9.82830585 C30,10.3805906 30.4477153,10.8283058 31,10.8283058 C31.2062422,10.8283058 31.4074398,10.7645369 31.5760283,10.6457356 L37.8400023,6.23162427 C38.2914563,5.91349265 38.3995355,5.28962023 38.0814038,4.83816623 C38.0153685,4.74445689 37.9337117,4.66280002 37.8400023,4.59676471 L31.5760283,0.182653359 C31.1245743,-0.135478264 30.5007018,-0.0273991218 30.1825702,0.42405488 C30.0637689,0.592643366 30,0.793840975 30,1.00008314 Z" fill="#1771F1"></path>
                        <path d="M29.5,5.5 L0.5,5.5" stroke="#1771F1" stroke-width="3" stroke-linecap="square"></path>
                    </g>
                </g>
            </g>
        </g>
    </g>
</svg>