<svg xmlns="http://www.w3.org/2000/svg" viewBox="0 0 156.11 156.11">
    <path class="svg__smm svg__smm--inst"
          d="M108.36,78.05A30.3,30.3,0,1,1,50,66.68H33.44V112a10.63,10.63,0,0,0,10.62,10.62h68A10.63,10.63,0,0,0,122.66,112h0V66.68H106.12A30.16,30.16,0,0,1,108.36,78.05Z"/>
    <path class="svg__smm svg__smm--inst" d="M78.05,97.56A19.5,19.5,0,1,0,62.24,66.68h0A19.48,19.48,0,0,0,78.05,97.56Z"/>
    <polygon class="svg__smm svg__smm--inst"
             points="120.64 54.19 120.64 37.84 120.64 35.41 118.19 35.42 101.85 35.47 101.92 54.25 120.64 54.19"/>
    <path class="svg__smm svg__smm--inst"
          d="M147.49,0H8.61A8.62,8.62,0,0,0,0,8.62V147.5a8.62,8.62,0,0,0,8.62,8.61H147.49a8.62,8.62,0,0,0,8.62-8.61h0V8.61A8.62,8.62,0,0,0,147.49,0Zm-14,66.68V112A21.44,21.44,0,0,1,112,133.46h-68A21.44,21.44,0,0,1,22.65,112v-68A21.44,21.44,0,0,1,44.06,22.65h68a21.44,21.44,0,0,1,21.42,21.41Z"/>
</svg>