<svg xmlns="http://www.w3.org/2000/svg" viewBox="0 0 156.11 156.11">
    <path class="svg__smm svg__smm--twitter"
          d="M147.49,0H8.61A8.62,8.62,0,0,0,0,8.62V147.5a8.62,8.62,0,0,0,8.62,8.61H147.49a8.62,8.62,0,0,0,8.62-8.61h0V8.61A8.62,8.62,0,0,0,147.49,0Zm-30.8,60.08V63.3C116.69,89.38,98.34,118,62,118c-11.27,0-23.5-2.9-32.2-8.37a24.37,24.37,0,0,0,4.83.32,38.93,38.93,0,0,0,24.15-8C50,101.62,42,96.79,39.42,89.06c1.29.32,12.88,3.22,16.1,0C46.5,87.13,33,76.18,33,66.52c2.58,1.61,6.44,3.22,9.66,3.22C37.16,66.2,33,60.41,33,53.65c0-3.54,1.61-6.76,3.22-9.66,9.66,11.91,22.54,16.1,41.86,16.1h.32a9.92,9.92,0,0,1-.32-3.22A19,19,0,0,1,97.37,37.55c5.8,0,9.34,2.58,12.88,6.44l2.58,2.58c3.54-1.29,7.08-3.86,10.3-5.8-1.61,4.51-5.47,10.3-9.66,12.88a60.23,60.23,0,0,0,12.88-4.19A43.18,43.18,0,0,1,116.69,60.08Z"/>
</svg>