<?xml version="1.0" encoding="UTF-8"?>
<svg width="50px" height="48px" viewBox="0 0 50 48" version="1.1" xmlns="http://www.w3.org/2000/svg">
    <g stroke="none" stroke-width="1" fill="none" fill-rule="evenodd">
        <g transform="translate(-365.000000, -1375.000000)" stroke="#EF7D40" stroke-width="3">
            <g transform="translate(196.000000, 924.000000)">
                <g transform="translate(171.000000, 453.000000)">
                    <rect x="11.85" y="19.9615385" width="21.15" height="14.3076923" rx="1"></rect>
                    <path d="M29.9,21.9230769 C29.9,12.6144716 26.2958922,8.07692308 21.85,8.07692308 C17.4041078,8.07692308 13.8,12.5177399 13.8,21.9230769" id="Oval-8"></path>
                    <path d="M29.9,0 L44.6934082,0 C45.245693,-1.01453063e-16 45.6934082,0.44771525 45.6934082,1 L45.6934082,15.465933" stroke-linecap="round" stroke-linejoin="round"></path>
                    <path d="M29.9,28.8461538 L44.6934082,28.8461538 C45.245693,28.8461538 45.6934082,29.2938691 45.6934082,29.8461538 L45.6934082,44.3120868" stroke-linecap="round" stroke-linejoin="round" transform="translate(37.796704, 36.579120) scale(1, -1) translate(-37.796704, -36.579120) "></path>
                    <path d="M0,0 L14.7934082,0 C15.345693,-1.01453063e-16 15.7934082,0.44771525 15.7934082,1 L15.7934082,15.465933" stroke-linecap="round" stroke-linejoin="round" transform="translate(7.896704, 7.732966) scale(-1, 1) translate(-7.896704, -7.732966) "></path>
                    <path d="M0,28.8461538 L14.7934082,28.8461538 C15.345693,28.8461538 15.7934082,29.2938691 15.7934082,29.8461538 L15.7934082,44.3120868" stroke-linecap="round" stroke-linejoin="round" transform="translate(7.896704, 36.579120) scale(-1, -1) translate(-7.896704, -36.579120) "></path>
                </g>
            </g>
        </g>
    </g>
</svg>