<?xml version="1.0" encoding="UTF-8"?>
<svg width="47px" height="46px" viewBox="0 0 47 46" version="1.1" xmlns="http://www.w3.org/2000/svg" xmlns:xlink="http://www.w3.org/1999/xlink">
    <g stroke="none" stroke-width="1" fill="none" fill-rule="evenodd">
        <g transform="translate(-1027.000000, -1380.000000)">
            <g transform="translate(196.000000, 924.000000)">
                <g transform="translate(833.000000, 457.000000)">
                    <path d="M7.52734375,11.4726562 L7.52734375,9.0703125 C7.52734375,8.66406047 7.7578102,8.35937602 8.21875,8.15625 C8.30468793,8.1171873 8.7226525,8.00000098 9.47265625,7.8046875 C10.7539127,7.46874832 11.3945312,6.78906762 11.3945312,5.765625 C11.3945312,5.24218488 11.1933614,4.80664236 10.7910156,4.45898438 C10.3886699,4.11132639 9.92578387,3.9375 9.40234375,3.9375 C8.7929657,3.9375 8.25000238,4.16796645 7.7734375,4.62890625 C7.49999863,4.9179702 7.08203406,5.35155961 6.51953125,5.9296875 C6.26171746,6.18750129 5.93359574,6.31640625 5.53515625,6.31640625 C5.06640391,6.31640625 4.69922008,6.14062676 4.43359375,5.7890625 C4.19140504,5.4687484 4.0703125,5.06640867 4.0703125,4.58203125 C4.0703125,3.41796293 4.68749383,2.4414102 5.921875,1.65234375 C7.00000539,0.964840313 8.16015004,0.62109375 9.40234375,0.62109375 C10.550787,0.62109375 11.5820267,0.863278828 12.4960938,1.34765625 C13.4882862,1.87109637 14.2148414,2.62108887 14.6757812,3.59765625 C14.9804703,4.23828445 15.1328125,4.96093348 15.1328125,5.765625 C15.1328125,8.27345004 13.7500138,9.88671516 10.984375,10.6054688 L10.984375,11.4726562 C10.984375,11.9726588 10.8222672,12.3730454 10.4980469,12.6738281 C10.1738265,12.9746109 9.76172125,13.125 9.26171875,13.125 C8.75390371,13.125 8.33789225,12.9746109 8.01367188,12.6738281 C7.6894515,12.3730454 7.52734375,11.9726588 7.52734375,11.4726562 Z M9.26171875,18.2929688 C8.74609117,18.2929688 8.30468934,18.1093768 7.9375,17.7421875 C7.57031066,17.3749982 7.38671875,16.9335963 7.38671875,16.4179688 C7.38671875,15.9023412 7.57031066,15.4609393 7.9375,15.09375 C8.30468934,14.7265607 8.74609117,14.5429688 9.26171875,14.5429688 C9.77734633,14.5429688 10.2167951,14.7265607 10.5800781,15.09375 C10.9433612,15.4609393 11.125,15.9023412 11.125,16.4179688 C11.125,16.9335963 10.9414081,17.3749982 10.5742188,17.7421875 C10.2070294,18.1093768 9.76953379,18.2929688 9.26171875,18.2929688 Z" fill="#EF7D40"></path>
                    <path d="M18.7084354,1.0000002 L29.712125,1.0000002 L31.9999999,1.00000001 C34.7614236,0.999999954 36.9999999,3.23857616 37,5.99999991 C37,5.99999996 37,6.00000001 37,6.00000006 L36.9999996,21.9030521 C36.9999996,24.6644758 34.7614234,26.903052 31.9999996,26.903052 L16.8762263,26.9030521 L5.9838601,38 L5.9838601,26.9030521 C1.99462003,26.889121 -9.09194059e-13,25.1634973 -9.09494702e-13,21.7261811 C-9.09494702e-13,18.2888649 -5.67451862e-13,14.688958 1.16633819e-13,10.9264606" stroke="#EF7D40" stroke-width="3" stroke-linecap="round" stroke-linejoin="round"></path>
                    <path d="M23,10 L39,10 C41.209139,10 43,11.790861 43,14 L43,29.4664789 C43,31.6756179 41.209139,33.4664789 39,33.4664789 L38.4285714,33.4664789 L38.4285714,41 L30.5959821,33.4664789 L23,33.4664789 C20.790861,33.4664789 19,31.6756179 19,29.4664789 L19,14 C19,11.790861 20.790861,10 23,10 Z" stroke="#EF7D40" stroke-width="3" fill="#FFFFFF"></path>
                    <path d="M28.9042969,23.5800781 L28.9042969,15.8847656 C28.9042969,15.4615864 29.0361315,15.1279309 29.2998047,14.8837891 C29.5634779,14.6396472 29.9101541,14.5175781 30.3398438,14.5175781 C30.7760438,14.5175781 31.1243477,14.6380196 31.3847656,14.8789062 C31.6451836,15.1197929 31.7753906,15.455076 31.7753906,15.8847656 L31.7753906,23.5800781 C31.7753906,23.9967469 31.6419284,24.3271472 31.375,24.5712891 C31.1080716,24.8154309 30.7630229,24.9375 30.3398438,24.9375 C29.9427063,24.9375 29.6041681,24.8105481 29.3242188,24.5566406 C29.0442694,24.3027331 28.9042969,23.9772155 28.9042969,23.5800781 Z M30.3398438,29.2441406 C29.9101541,29.2441406 29.5423192,29.0911474 29.2363281,28.7851562 C28.930337,28.4791651 28.7773438,28.1113303 28.7773438,27.6816406 C28.7773438,27.251951 28.930337,26.8841161 29.2363281,26.578125 C29.5423192,26.2721339 29.9101541,26.1191406 30.3398438,26.1191406 C30.7695334,26.1191406 31.1373683,26.2721339 31.4433594,26.578125 C31.7493505,26.8841161 31.9023438,27.251951 31.9023438,27.6816406 C31.9023438,28.1113303 31.7493505,28.4791651 31.4433594,28.7851562 C31.1373683,29.0911474 30.7695334,29.2441406 30.3398438,29.2441406 Z" fill="#EF7D40"></path>
                </g>
            </g>
        </g>
    </g>
</svg>