<?xml version="1.0" encoding="UTF-8"?>
<svg width="52px" height="47px" viewBox="0 0 52 47" version="1.1" xmlns="http://www.w3.org/2000/svg">
    <g stroke="none" stroke-width="1" fill="none" fill-rule="evenodd">
        <g transform="translate(-291.000000, -1216.000000)">
            <g transform="translate(196.000000, 924.000000)">
                <g transform="translate(96.000000, 293.000000)">
                    <path d="M25.8876593,1.51882594 L49.1836926,42.2739752 C49.457768,42.7534552 49.2912546,43.3643326 48.8117746,43.638408 C48.6606485,43.7247931 48.4895904,43.7702326 48.3155172,43.7702326 L1.72345049,43.7702326 C1.17116574,43.7702326 0.723450489,43.3225173 0.723450489,42.7702326 C0.723450489,42.5961594 0.768889937,42.4251013 0.855275045,42.2739752 L24.1513084,1.51882594 C24.4253838,1.03934588 25.0362612,0.872832499 25.5157412,1.14690789 C25.67068,1.23547239 25.7990948,1.36388713 25.8876593,1.51882594 Z" stroke="#EF7D40" stroke-width="3" stroke-linejoin="round"></path>
                    <path d="M23.3144531,28.4121094 L23.3144531,17.6386719 C23.3144531,17.046221 23.4990216,16.5791033 23.8681641,16.2373047 C24.2373065,15.8955061 24.7226532,15.7246094 25.3242187,15.7246094 C25.9348989,15.7246094 26.4225242,15.8932275 26.7871094,16.2304688 C27.1516945,16.56771 27.3339844,17.0371064 27.3339844,17.6386719 L27.3339844,28.4121094 C27.3339844,28.9954456 27.1471373,29.4580061 26.7734375,29.7998047 C26.3997377,30.1416033 25.9166696,30.3125 25.3242187,30.3125 C24.7682264,30.3125 24.2942728,30.1347674 23.9023437,29.7792969 C23.5104147,29.4238263 23.3144531,28.9681017 23.3144531,28.4121094 Z M25.3242187,36.3417969 C24.7226532,36.3417969 24.2076844,36.1276063 23.7792969,35.6992188 C23.3509093,35.2708312 23.1367187,34.7558624 23.1367187,34.1542969 C23.1367187,33.5527314 23.3509093,33.0377626 23.7792969,32.609375 C24.2076844,32.1809874 24.7226532,31.9667969 25.3242187,31.9667969 C25.9257843,31.9667969 26.4407531,32.1809874 26.8691406,32.609375 C27.2975282,33.0377626 27.5117187,33.5527314 27.5117187,34.1542969 C27.5117187,34.7558624 27.2975282,35.2708312 26.8691406,35.6992188 C26.4407531,36.1276063 25.9257843,36.3417969 25.3242187,36.3417969 Z" fill="#EF7D40"></path>
                </g>
            </g>
        </g>
    </g>
</svg>