<?xml version="1.0" encoding="UTF-8"?>
<svg width="46px" height="44px" viewBox="0 0 46 44" version="1.1" xmlns="http://www.w3.org/2000/svg">
    <g stroke="none" stroke-width="1" fill="none" fill-rule="evenodd">
        <g transform="translate(-594.000000, -1474.000000)" stroke="#EF7D40" stroke-width="3">
            <g transform="translate(196.000000, 924.000000)">
                <g transform="translate(400.000000, 552.000000)">
                    <rect x="0" y="20.5" width="8.61538462" height="14.0263158" rx="3"></rect>
                    <rect x="33.3846154" y="20.5" width="8.61538462" height="14.0263158" rx="3"></rect>
                    <path d="M2.15384615,20.2660876 C2.15384615,11.754099 9.46251502,1.54686655e-15 19.8594501,0 C30.2563852,0 38.9138371,7.24759714 38.9138371,20.2660876" id="Path-19"></path>
                    <path d="M8.61538462,16.3269814 C10.1910369,9.7581166 13.8059266,6.47368421 19.460054,6.47368421 C27.9412449,6.47368421 32.5723029,9.89961738 32.5723029,16.3269814" stroke-linecap="round"></path>
                    <path d="M37.4483173,35.6052632 C37.4483173,37.6519968 38.5115685,40.2192383 34.1092248,40.2192383 C31.1743289,40.2192383 28.0609976,40.2192383 24.7692308,40.2192383" stroke-linecap="round"></path>
                </g>
            </g>
        </g>
    </g>
</svg>