<?xml version="1.0" encoding="UTF-8"?>
<svg width="42px" height="54px" viewBox="0 0 42 54" version="1.1" xmlns="http://www.w3.org/2000/svg" xmlns:xlink="http://www.w3.org/1999/xlink">
    <g stroke="none" stroke-width="1" fill="none" fill-rule="evenodd">
        <g transform="translate(-1093.000000, -1208.000000)" stroke="#EF7D40" stroke-width="3">
            <g transform="translate(196.000000, 924.000000)">
                <g transform="translate(899.000000, 286.000000)">
                    <path d="M1,0 L28.6269531,0 L38,9.80078125 L38,49 C38,49.5522847 37.5522847,50 37,50 L1,50 C0.44771525,50 6.76353751e-17,49.5522847 0,49 L0,1 C-6.76353751e-17,0.44771525 0.44771525,1.01453063e-16 1,0 Z" stroke-linejoin="round"></path>
                    <path d="M28,0 L28,8.390625 C28,8.94290975 28.4477153,9.390625 29,9.390625 L37.8037109,9.390625" stroke-linejoin="round"></path>
                    <path d="M9,17.5 L28.8720703,17.5" stroke-linecap="round"></path>
                    <path d="M9,24.5 L28.8720703,24.5" stroke-linecap="round"></path>
                    <path d="M9,31.5 L28.8720703,31.5" stroke-linecap="round"></path>
                    <path d="M9,38.5 L20.0146663,38.5" stroke-linecap="round"></path>
                </g>
            </g>
        </g>
    </g>
</svg>