<?xml version="1.0" encoding="UTF-8"?>
<svg width="56px" height="44px" viewBox="0 0 56 44" version="1.1" xmlns="http://www.w3.org/2000/svg">
    <g  stroke="none" stroke-width="1" fill="none" fill-rule="evenodd">
        <g  transform="translate(-457.000000, -1982.000000)">
            <g  transform="translate(149.000000, 1521.000000)">
                <g  transform="translate(310.000000, 463.000000)">
                    <path d="M0,31 L6.07511159,37.0274144 C6.46498855,37.4142304 7.0938637,37.4142304 7.48374067,37.0274144 L13.5588523,31"  stroke="#EF7D40" stroke-width="3" stroke-linecap="round" stroke-linejoin="round"></path>
                    <path d="M7,35.8671875 L7,8 C7,3.581722 10.581722,8.11624501e-16 15,0 L33.0214844,0"  stroke="#EF7D40" stroke-width="3" stroke-linecap="round"></path>
                    <path d="M18,40.0488281 L37.0214844,40.0488281 C41.4397624,40.0488281 45.0214844,36.4671061 45.0214844,32.0488281 L45.0214844,4"  stroke="#EF7D40" stroke-width="3" stroke-linecap="round"></path>
                    <path d="M38,2 L44.0751116,8.02741443 C44.4649886,8.41423038 45.0938637,8.41423038 45.4837407,8.02741443 L51.5588523,2"  stroke="#EF7D40" stroke-width="3" stroke-linecap="round" stroke-linejoin="round" transform="translate(44.779426, 5.363100) scale(-1, -1) translate(-44.779426, -5.363100) "></path>
                    <path d="M26.4804688,10.6210938 C28.2539151,10.6210938 29.6367138,11.0312459 30.6289062,11.8515625 C30.9960956,12.1562515 31.1796875,12.5468726 31.1796875,13.0234375 C31.1796875,13.5312525 31.0390639,13.9492171 30.7578125,14.2773438 C30.460936,14.628908 30.0664087,14.8046875 29.5742188,14.8046875 C29.2851548,14.8046875 28.9101586,14.7226571 28.4492188,14.5585938 L27.3476562,14.171875 C27.0585923,14.1093747 26.738283,14.078125 26.3867188,14.078125 C25.8632786,14.078125 25.4179706,14.2031238 25.0507812,14.453125 C24.6289041,14.7421889 24.4179688,15.1367162 24.4179688,15.6367188 C24.4179688,16.2695344 25.1132743,16.7890605 26.5039062,17.1953125 C27.3710981,17.4453137 28.0273415,17.6484367 28.4726562,17.8046875 C29.2382851,18.0703138 29.8710912,18.3632796 30.3710938,18.6835938 C31.7461006,19.5664107 32.4335938,20.9101472 32.4335938,22.7148438 C32.4335938,24.4101647 31.8242248,25.7773386 30.6054688,26.8164062 C29.4570255,27.8007862 28.0195399,28.2929688 26.2929688,28.2929688 C23.9023318,28.2929688 22.1718804,27.8515669 21.1015625,26.96875 C20.6718729,26.6171857 20.4570312,26.1601591 20.4570312,25.5976562 C20.4570312,25.1132788 20.6054673,24.708986 20.9023438,24.3847656 C21.1992202,24.0605453 21.5859351,23.8984375 22.0625,23.8984375 C22.4375019,23.8984375 23.0546832,24.0507797 23.9140625,24.3554688 C24.8125045,24.6757829 25.5390597,24.8359375 26.09375,24.8359375 C26.789066,24.8359375 27.3593728,24.6718766 27.8046875,24.34375 C28.2968775,23.9687481 28.5429688,23.4453159 28.5429688,22.7734375 C28.5429688,21.9921836 27.8554756,21.3984395 26.4804688,20.9921875 C26.035154,20.8749994 25.3710982,20.6914075 24.4882812,20.4414062 C23.832028,20.2382802 23.2070342,19.9726579 22.6132812,19.6445312 C21.2226493,18.8710899 20.5273438,17.6796955 20.5273438,16.0703125 C20.5273438,14.4296793 21.1171816,13.0976614 22.296875,12.0742188 C23.4218806,11.1054639 24.8163979,10.6210938 26.4804688,10.6210938 Z"  fill="#EF7D40"></path>
                    <path d="M26,8 L26,11.277832"  stroke="#EF7D40" stroke-width="3" stroke-linecap="round"></path>
                    <path d="M26.25,28 L26.25,31.277832"  stroke="#EF7D40" stroke-width="3" stroke-linecap="round"></path>
                </g>
            </g>
        </g>
    </g>
</svg>