<?xml version="1.0" encoding="UTF-8"?>
<svg width="43px" height="56px" viewBox="0 0 43 56" version="1.1" xmlns="http://www.w3.org/2000/svg">
    <g  stroke="none" stroke-width="1" fill="none" fill-rule="evenodd">
        <g  transform="translate(-371.000000, -1811.000000)">
            <g  transform="translate(149.000000, 1521.000000)">
                <g  transform="translate(224.000000, 292.000000)">
                    <path d="M-3.41632651,3.41632651 L2.65878507,9.44374094 C3.04866204,9.83055689 3.67753719,9.83055689 4.06741415,9.44374094 L10.1425257,3.41632651"  stroke="#EF7D40" stroke-width="3" stroke-linecap="round" stroke-linejoin="round" transform="translate(3.363100, 6.779426) rotate(90.000000) translate(-3.363100, -6.779426) "></path>
                    <path d="M1,7 L36.0214844,7"  stroke="#EF7D40" stroke-width="3" stroke-linecap="round"></path>
                    <path d="M2,45.25 L37.0214844,45.25"  stroke="#EF7D40" stroke-width="3" stroke-linecap="round"></path>
                    <path d="M29.5836735,41.4163265 L35.6587851,47.4437409 C36.048662,47.8305569 36.6775372,47.8305569 37.0674142,47.4437409 L43.1425257,41.4163265"  stroke="#EF7D40" stroke-width="3" stroke-linecap="round" stroke-linejoin="round" transform="translate(36.363100, 44.779426) scale(-1, 1) rotate(90.000000) translate(-36.363100, -44.779426) "></path>
                    <path d="M21.4804688,16.6210938 C23.2539151,16.6210938 24.6367138,17.0312459 25.6289062,17.8515625 C25.9960956,18.1562515 26.1796875,18.5468726 26.1796875,19.0234375 C26.1796875,19.5312525 26.0390639,19.9492171 25.7578125,20.2773438 C25.460936,20.628908 25.0664087,20.8046875 24.5742188,20.8046875 C24.2851548,20.8046875 23.9101586,20.7226571 23.4492188,20.5585938 L22.3476562,20.171875 C22.0585923,20.1093747 21.738283,20.078125 21.3867188,20.078125 C20.8632786,20.078125 20.4179706,20.2031237 20.0507812,20.453125 C19.6289041,20.7421889 19.4179688,21.1367162 19.4179688,21.6367188 C19.4179688,22.2695344 20.1132743,22.7890605 21.5039062,23.1953125 C22.3710981,23.4453137 23.0273415,23.6484367 23.4726562,23.8046875 C24.2382851,24.0703138 24.8710912,24.3632796 25.3710938,24.6835938 C26.7461006,25.5664107 27.4335938,26.9101472 27.4335938,28.7148438 C27.4335938,30.4101647 26.8242248,31.7773386 25.6054688,32.8164062 C24.4570255,33.8007862 23.0195399,34.2929688 21.2929688,34.2929688 C18.9023318,34.2929688 17.1718804,33.8515669 16.1015625,32.96875 C15.6718729,32.6171857 15.4570312,32.1601591 15.4570312,31.5976562 C15.4570312,31.1132788 15.6054673,30.708986 15.9023438,30.3847656 C16.1992202,30.0605453 16.5859351,29.8984375 17.0625,29.8984375 C17.4375019,29.8984375 18.0546832,30.0507797 18.9140625,30.3554688 C19.8125045,30.6757829 20.5390597,30.8359375 21.09375,30.8359375 C21.789066,30.8359375 22.3593728,30.6718766 22.8046875,30.34375 C23.2968775,29.9687481 23.5429688,29.4453159 23.5429688,28.7734375 C23.5429688,27.9921836 22.8554756,27.3984395 21.4804688,26.9921875 C21.035154,26.8749994 20.3710982,26.6914075 19.4882812,26.4414062 C18.832028,26.2382802 18.2070342,25.9726579 17.6132812,25.6445312 C16.2226493,24.8710899 15.5273438,23.6796955 15.5273438,22.0703125 C15.5273438,20.4296793 16.1171816,19.0976614 17.296875,18.0742188 C18.4218806,17.1054639 19.8163979,16.6210938 21.4804688,16.6210938 Z"  fill="#EF7D40"></path>
                    <path d="M21,14 L21,17.277832"  stroke="#EF7D40" stroke-width="3" stroke-linecap="round"></path>
                    <path d="M21.25,34 L21.25,37.277832"  stroke="#EF7D40" stroke-width="3" stroke-linecap="round"></path>
                </g>
            </g>
        </g>
    </g>
</svg>